<svg width="54" height="59" viewBox="0 0 54 59" fill="none" xmlns="http://www.w3.org/2000/svg">
<path d="M24.2454 10.2953C26.4434 6.9133 31.5353 7.39195 33.0646 11.1244L43.6472 36.9538C45.0721 40.4316 42.2945 44.1792 38.5526 43.8274L12.7592 41.4029C9.01727 41.0511 6.98664 36.8515 9.03469 33.7002L24.2454 10.2953Z" fill="#82CEE3"/>
<path d="M16.3506 19.5673C18.5344 16.0958 23.7386 16.585 25.2372 20.4027L30.9321 34.9106C32.2936 38.3789 29.5195 42.0644 25.8099 41.7156L11.8161 40.4002C8.10653 40.0515 6.06788 35.9137 8.05182 32.7599L16.3506 19.5673Z" fill="#049CC6"/>
<path d="M9.81827 27.4539C12.0163 24.0719 17.1082 24.5505 18.6374 28.283L20.553 32.9584C21.9779 36.4362 19.2002 40.1838 15.4583 39.8321L10.7894 39.3932C7.04753 39.0414 5.0169 34.8418 7.06495 31.6905L9.81827 27.4539Z" fill="#024E63"/>
<circle cx="10.9214" cy="34.6276" r="4.5" fill="#ED6805"/>
</svg>
